<svg xmlns="http://www.w3.org/2000/svg" viewBox="0 0 500 294.33"><defs><style>.cls-1{fill:#fff;}.cls-2{fill:#15195a;}</style></defs><g id="background"><rect class="cls-1" width="500" height="294.33" rx="40"/></g><g id="logo"><path class="cls-2" d="M213.45,99.84l-39.77,94.89h-26L128.16,119c-1.19-4.67-2.22-6.38-5.84-8.34-5.9-3.2-15.64-6.21-24.21-8.07l.58-2.76h41.77a11.45,11.45,0,0,1,11.32,9.68l10.33,54.91,25.55-64.59Zm101.67,63.91c.1-25-34.63-26.42-34.39-37.61.07-3.4,3.31-7,10.41-8a46.31,46.31,0,0,1,24.2,4.25l4.31-20.12a65.84,65.84,0,0,0-23-4.21c-24.26,0-41.34,12.9-41.48,31.37-.16,13.66,12.19,21.28,21.49,25.82,9.56,4.65,12.77,7.63,12.74,11.79-.07,6.37-7.63,9.18-14.7,9.29-12.34.19-19.5-3.34-25.21-6l-4.45,20.78c5.74,2.64,16.33,4.93,27.3,5.05,25.79,0,42.66-12.74,42.74-32.47m64.07,31h22.7L382.07,99.84H361.12a11.19,11.19,0,0,0-10.45,7l-36.83,87.93h25.77l5.12-14.17h31.5ZM351.8,161.11l12.92-35.63,7.44,35.63ZM248.52,99.84l-20.29,94.89H203.68L224,99.84Z"/></g></svg>